HIERARCHY
ROOT Root
{
	OFFSET 0.00000 0.00000 0.00000
	CHANNELS 6 Xposition Yposition Zposition Zrotation Xrotation Yrotation
	JOINT Hips
	{
		OFFSET 0 0 0	
		CHANNELS 3 Zrotation Xrotation Yrotation
		JOINT Spine
		{
			OFFSET 0 4 0	
			CHANNELS 3 Zrotation Xrotation Yrotation
			JOINT Spine1
			{
				OFFSET 0 19.4 0	
				CHANNELS 3 Zrotation Xrotation Yrotation
				JOINT Spine2
				{
					OFFSET 0 16.6 0	
					CHANNELS 3 Zrotation Xrotation Yrotation
					JOINT LeftCollar
					{
						OFFSET 0 10 0	
						CHANNELS 3 Zrotation Xrotation Yrotation
						JOINT LeftArm
						{
							OFFSET 15.6 -2 3	
							CHANNELS 3 Zrotation Xrotation Yrotation
							JOINT LeftForeArm
							{
								OFFSET 3.5 -27 -1	
								CHANNELS 3 Zrotation Xrotation Yrotation
								JOINT LeftHand
								{
									OFFSET 1 -27 1	
									CHANNELS 3 Zrotation Xrotation Yrotation
									End Site
									{
										OFFSET 0 -15 0
									}
								}
							}
						}
					}
					JOINT RightCollar
					{
						OFFSET 0 10 0	
						CHANNELS 3 Zrotation Xrotation Yrotation
						JOINT RightArm
						{
							OFFSET -15.6 -2 3	
							CHANNELS 3 Zrotation Xrotation Yrotation
							JOINT RightForeArm
							{
								OFFSET -3.5 -27 -1	
								CHANNELS 3 Zrotation Xrotation Yrotation
								JOINT RightHand
								{
									OFFSET -1 -27 1	
									CHANNELS 3 Zrotation Xrotation Yrotation
									End Site
									{
										OFFSET 0 -15 0
									}
								}
							}
						}
					}
					JOINT Neck
					{
						OFFSET 0 10 0	
						CHANNELS 3 Zrotation Xrotation Yrotation
						JOINT Head
						{
							OFFSET 0 12.7 3	
							CHANNELS 3 Zrotation Xrotation Yrotation
							End Site
							{
								OFFSET 0 12.7 3
							}
						}
					}
				}
			}
		}
	}
	JOINT LeftHip
	{
		OFFSET 0 0 0	
		CHANNELS 3 Zrotation Xrotation Yrotation
		JOINT LeftUpLeg
		{
			OFFSET 8.8 -6 0	
			CHANNELS 3 Zrotation Xrotation Yrotation
			JOINT LeftLeg
			{
				OFFSET 0 -39 2	
				CHANNELS 3 Zrotation Xrotation Yrotation
				JOINT LeftFoot
				{
					OFFSET 0 -43 -2	
					CHANNELS 3 Zrotation Xrotation Yrotation
					JOINT LeftFootFront
					{
						OFFSET 0 -7 8.5	
						CHANNELS 3 Zrotation Xrotation Yrotation
						End Site
						{
							OFFSET 0 -0.5 9
						}
					}
				}
				JOINT LeftHeel
				{
					OFFSET 0 -43 -2	
					CHANNELS 3 Zrotation Xrotation Yrotation
					End Site
					{
						OFFSET 0 -7.5 -5
					}
				}
			}
		}
	}
	JOINT RightHip
	{
		OFFSET 0 0 0	
		CHANNELS 3 Zrotation Xrotation Yrotation
		JOINT RightUpLeg
		{
			OFFSET -8.8 -6 0	
			CHANNELS 3 Zrotation Xrotation Yrotation
			JOINT RightLeg
			{
				OFFSET 0 -39 2	
				CHANNELS 3 Zrotation Xrotation Yrotation
				JOINT RightFoot
				{
					OFFSET 0 -43 -2	
					CHANNELS 3 Zrotation Xrotation Yrotation
					JOINT RightFootFront
					{
						OFFSET 0 -7 8.5	
						CHANNELS 3 Zrotation Xrotation Yrotation
						End Site
						{
							OFFSET 0 -0.5 9
						}
					}
				}
				JOINT RightHeel
				{
					OFFSET 0 -43 -2	
					CHANNELS 3 Zrotation Xrotation Yrotation
					End Site
					{
						OFFSET 0 -7.5 -5
					}
				}
			}
		}
	}
}
MOTION
Frames: 13
Frame Time: 0.025
0 95.5 0 -0 0 -0 -0.10522 0.11595 0.29347 0.10463 -0.11648 -0.29325 0.049781 0.11908 -0.36828 0.065103 0.0012027 -0.2778 -0 0 -0 0.18414 -0.22367 1.2347 -0.33044 0.18629 -0.29403 0.17072 0.05169 0.052872 -0 0 -0 -0.12382 -0.0085291 0.85578 0.32357 -0.19268 -0.41261 -0.42833 0.16392 0.69055 -0.15894 0.033404 0.1155 -0.15894 0.033404 0.1155 -0 0 -0 -0 0 -0 -0 0 -0 -0 0 -0 -0 0 -0 -0 0 -0 -0 0 -0 -0 0 -0 -0 0 -0 -0 0 -0 -0 0 -0 -0 0 -0 
0 95.5 0 -0 0 -0 -0.10263 0.11405 0.29562 0.10204 -0.11457 -0.29541 0.045602 0.12563 -0.36741 0.062267 0.0047549 -0.27834 -0 0 -0 0.19011 -0.2318 1.2364 -0.32729 0.18497 -0.3001 0.16838 0.051592 0.058708 -0 0 -0 -0.11382 -0.011903 0.85753 0.32005 -0.20137 -0.41663 -0.43786 0.16855 0.69035 -0.15431 0.025902 0.11475 -0.15431 0.025902 0.11475 -0 0 -0 -0 0 -0 -0 0 -0 -0 0 -0 -0 0 -0 -0 0 -0 -0 0 -0 -0 0 -0 -0 0 -0 -0 0 -0 -0 0 -0 -0 0 -0 
0 95.5 0 -0 0 -0 -0.099608 0.11205 0.29858 0.099023 -0.11257 -0.29838 0.039188 0.11311 -0.36505 0.058296 0.00033458 -0.27861 -0 0 -0 0.19873 -0.21207 1.2371 -0.32285 0.18312 -0.30862 0.16535 0.050902 0.066333 -0 0 -0 -0.10568 0.0047957 0.85839 0.32141 -0.2039 -0.4223 -0.45105 0.17498 0.69005 -0.14784 0.031746 0.11342 -0.14784 0.031746 0.11342 -0 0 -0 -0 0 -0 -0 0 -0 -0 0 -0 -0 0 -0 -0 0 -0 -0 0 -0 -0 0 -0 -0 0 -0 -0 0 -0 -0 0 -0 -0 0 -0 
0 95.5 0 -0 0 -0 -0.097435 0.11108 0.30136 0.096849 -0.11159 -0.30117 0.026456 0.090504 -0.362 0.052018 -0.0087422 -0.27852 -0 0 -0 0.21566 -0.17735 1.2368 -0.31805 0.18115 -0.31747 0.16206 0.049256 0.073016 -0 0 -0 -0.076096 0.03189 0.85826 0.30974 -0.20184 -0.42807 -0.46434 0.18173 0.68954 -0.13697 0.045306 0.11156 -0.13697 0.045306 0.11156 -0 0 -0 -0 0 -0 -0 0 -0 -0 0 -0 -0 0 -0 -0 0 -0 -0 0 -0 -0 0 -0 -0 0 -0 -0 0 -0 -0 0 -0 -0 0 -0 
0 95.5 0 -0 0 -0 -0.095372 0.10924 0.30402 0.094791 -0.10975 -0.30384 0.011236 0.06754 -0.3589 0.044741 -0.017602 -0.27835 -0 0 -0 0.23535 -0.14241 1.2358 -0.3124 0.17908 -0.32576 0.15833 0.046722 0.079603 -0 0 -0 -0.04282 0.045216 0.85728 0.29768 -0.18546 -0.43242 -0.47555 0.1883 0.68805 -0.12427 0.058751 0.10934 -0.12427 0.058751 0.10934 -0 0 -0 -0 0 -0 -0 0 -0 -0 0 -0 -0 0 -0 -0 0 -0 -0 0 -0 -0 0 -0 -0 0 -0 -0 0 -0 -0 0 -0 -0 0 -0 
0 95.5 0 -0 0 -0 -0.092549 0.10502 0.30706 0.091985 -0.10551 -0.3069 0.0035865 0.04199 -0.3558 0.040324 -0.026553 -0.27834 -0 0 -0 0.2433 -0.10549 1.234 -0.30521 0.17732 -0.33315 0.15446 0.04341 0.087004 -0 0 -0 -0.032127 0.053827 0.85503 0.29726 -0.16154 -0.43331 -0.48334 0.19428 0.68481 -0.11648 0.073473 0.10765 -0.11648 0.073473 0.10765 -0 0 -0 -0 0 -0 -0 0 -0 -0 0 -0 -0 0 -0 -0 0 -0 -0 0 -0 -0 0 -0 -0 0 -0 -0 0 -0 -0 0 -0 -0 0 -0 
0 95.5 0 -0 0 -0 -0.089269 0.10055 0.31101 0.088722 -0.10104 -0.31085 0.0060138 0.014897 -0.3527 0.039944 -0.036059 -0.2787 -0 0 -0 0.23718 -0.06691 1.2324 -0.29777 0.17513 -0.34026 0.14995 0.040973 0.09427 -0 0 -0 -0.048764 0.067042 0.85243 0.30967 -0.14059 -0.43184 -0.48997 0.1998 0.68071 -0.1163 0.089614 0.10652 -0.1163 0.089614 0.10652 -0 0 -0 -0 0 -0 -0 0 -0 -0 0 -0 -0 0 -0 -0 0 -0 -0 0 -0 -0 0 -0 -0 0 -0 -0 0 -0 -0 0 -0 -0 0 -0 
0 95.5 0 -0 0 -0 -0.086074 0.097613 0.31574 0.085534 -0.098085 -0.31559 0.0065937 -0.01037 -0.34959 0.038823 -0.045436 -0.2794 -0 0 -0 0.2346 -0.028531 1.2303 -0.29161 0.16982 -0.34598 0.14461 0.041039 0.10108 -0 0 -0 -0.069594 0.082797 0.85005 0.32924 -0.12516 -0.43072 -0.49707 0.20528 0.67654 -0.1152 0.10519 0.10558 -0.1152 0.10519 0.10558 -0 0 -0 -0 0 -0 -0 0 -0 -0 0 -0 -0 0 -0 -0 0 -0 -0 0 -0 -0 0 -0 -0 0 -0 -0 0 -0 -0 0 -0 -0 0 -0 
0 95.5 0 -0 0 -0 -0.083667 0.095434 0.31968 0.083133 -0.095899 -0.31954 -0.0045744 -0.032704 -0.34649 0.0331 -0.053891 -0.27976 -0 0 -0 0.24813 0.0071689 1.2272 -0.28662 0.16216 -0.35025 0.14042 0.043234 0.10619 -0 0 -0 -0.072611 0.10695 0.84736 0.34771 -0.12269 -0.43015 -0.50475 0.21117 0.67283 -0.1056 0.11925 0.10446 -0.1056 0.11925 0.10446 -0 0 -0 -0 0 -0 -0 0 -0 -0 0 -0 -0 0 -0 -0 0 -0 -0 0 -0 -0 0 -0 -0 0 -0 -0 0 -0 -0 0 -0 -0 0 -0 
0 95.5 0 -0 0 -0 -0.081829 0.093241 0.323 0.081302 -0.093701 -0.32287 -0.012947 -0.055533 -0.34341 0.028789 -0.062551 -0.27987 -0 0 -0 0.25599 0.04276 1.2237 -0.28047 0.15502 -0.35488 0.13692 0.045442 0.11166 -0 0 -0 -0.076198 0.15395 0.84446 0.36143 -0.14258 -0.42944 -0.51168 0.21742 0.66973 -0.09786 0.13381 0.10314 -0.09786 0.13381 0.10314 -0 0 -0 -0 0 -0 -0 0 -0 -0 0 -0 -0 0 -0 -0 0 -0 -0 0 -0 -0 0 -0 -0 0 -0 -0 0 -0 -0 0 -0 -0 0 -0 
0 95.5 0 -0 0 -0 -0.079427 0.090489 0.32632 0.07891 -0.09094 -0.3262 -0.013996 -0.068788 -0.3404 0.027326 -0.06696 -0.28 -0 0 -0 0.25265 0.064535 1.2204 -0.27198 0.1489 -0.3602 0.13284 0.046147 0.11891 -0 0 -0 -0.095081 0.18749 0.84167 0.37991 -0.16271 -0.42862 -0.51798 0.22385 0.66604 -0.095185 0.14121 0.1015 -0.095185 0.14121 0.1015 -0 0 -0 -0 0 -0 -0 0 -0 -0 0 -0 -0 0 -0 -0 0 -0 -0 0 -0 -0 0 -0 -0 0 -0 -0 0 -0 -0 0 -0 -0 0 -0 
0 95.5 0 -0 0 -0 -0.077717 0.087534 0.32976 0.077212 -0.08798 -0.32964 -0.022754 -0.057504 -0.33809 0.02294 -0.060971 -0.28048 -0 0 -0 0.26042 0.051866 1.2184 -0.2629 0.14299 -0.36586 0.12817 0.047432 0.12696 -0 0 -0 -0.10817 0.17121 0.83983 0.40376 -0.1673 -0.4278 -0.52413 0.23011 0.66235 -0.087248 0.13072 0.099622 -0.087248 0.13072 0.099621 -0 0 -0 -0 0 -0 -0 0 -0 -0 0 -0 -0 0 -0 -0 0 -0 -0 0 -0 -0 0 -0 -0 0 -0 -0 0 -0 -0 0 -0 -0 0 -0 
0 95.5 0 -0 0 -0 -0.077692 0.085005 0.33322 0.077196 -0.085455 -0.3331 -0.030521 -0.033777 -0.33714 0.019691 -0.049937 -0.28153 -0 0 -0 0.26683 0.021472 1.2185 -0.25484 0.13688 -0.37169 0.12415 0.050247 0.13497 -0 0 -0 -0.11583 0.13692 0.83986 0.42051 -0.17108 -0.42692 -0.53055 0.23629 0.65974 -0.080451 0.11177 0.098669 -0.080451 0.11177 0.098669 -0 0 -0 -0 0 -0 -0 0 -0 -0 0 -0 -0 0 -0 -0 0 -0 -0 0 -0 -0 0 -0 -0 0 -0 -0 0 -0 -0 0 -0 -0 0 -0 
